# MagicaVoxel @ Ephtracy

# group
o 

# material
mtllib card-tan-black-joker.mtl
usemtl palette

# normals
vn -1 0 0
vn 1 0 0
vn 0 0 1
vn 0 0 -1
vn 0 -1 0
vn 0 1 0

# texcoords
vt 0.943359 0.5
vt 0.970703 0.5
vt 0.978516 0.5
vt 0.982422 0.5
vt 0.986328 0.5

# verts
v -1.2 0 1.6
v -1.2 0 -1.6
v -1.2 0.2 1.6
v -1.2 0.2 -1.6
v -1.1 0 1.7
v -1.1 0 1.6
v -1.1 0 -1.6
v -1.1 0 -1.7
v -1.1 0.2 1.7
v -1.1 0.2 1.6
v -1.1 0.2 -1.6
v -1.1 0.2 -1.7
v 1.1 0 1.7
v 1.1 0 1.6
v 1.1 0 -1.6
v 1.1 0 -1.7
v 1.1 0.2 1.7
v 1.1 0.2 1.6
v 1.1 0.2 -1.6
v 1.1 0.2 -1.7
v 1.2 0 1.6
v 1.2 0 -1.6
v 1.2 0.2 1.6
v 1.2 0.2 -1.6
v -1.1 0 1.7
v -1.1 0.2 1.7
v 1.1 0 1.7
v 1.1 0.2 1.7
v -1.2 0 1.6
v -1.2 0.2 1.6
v -1.1 0 1.6
v -1.1 0.2 1.6
v 1.1 0 1.6
v 1.1 0.2 1.6
v 1.2 0 1.6
v 1.2 0.2 1.6
v -1.2 0 -1.6
v -1.2 0.2 -1.6
v -1.1 0 -1.6
v -1.1 0.2 -1.6
v 1.1 0 -1.6
v 1.1 0.2 -1.6
v 1.2 0 -1.6
v 1.2 0.2 -1.6
v -1.1 0 -1.7
v -1.1 0.2 -1.7
v 1.1 0 -1.7
v 1.1 0.2 -1.7
v -1.1 0 1.7
v 1.1 0 1.7
v -1.2 0 1.6
v -1.1 0 1.6
v -1 0 1.6
v 1 0 1.6
v 1.1 0 1.6
v 1.2 0 1.6
v -1.1 0 1.5
v -1 0 1.5
v -0.9 0 1.5
v 0.9 0 1.5
v 1 0 1.5
v 1.1 0 1.5
v -1 0 1.4
v -0.9 0 1.4
v 0.9 0 1.4
v 1 0 1.4
v -0.7 0 1.3
v 0.7 0 1.3
v -0.8 0 1.2
v -0.7 0 1.2
v -0.6 0 1.2
v 0.6 0 1.2
v 0.7 0 1.2
v 0.8 0 1.2
v -0.7 0 1.1
v -0.6 0 1.1
v 0.6 0 1.1
v 0.7 0 1.1
v -0.4 0 1
v 0.4 0 1
v -0.5 0 0.9
v -0.4 0 0.9
v -0.3 0 0.9
v 0.3 0 0.9
v 0.4 0 0.9
v 0.5 0 0.9
v -0.4 0 0.8
v -0.3 0 0.8
v 0.3 0 0.8
v 0.4 0 0.8
v -0.4 0 -0.8
v -0.3 0 -0.8
v 0.3 0 -0.8
v 0.4 0 -0.8
v -0.5 0 -0.9
v -0.4 0 -0.9
v -0.3 0 -0.9
v 0.3 0 -0.9
v 0.4 0 -0.9
v 0.5 0 -0.9
v -0.4 0 -1
v 0.4 0 -1
v -0.7 0 -1.1
v -0.6 0 -1.1
v 0.6 0 -1.1
v 0.7 0 -1.1
v -0.8 0 -1.2
v -0.7 0 -1.2
v -0.6 0 -1.2
v 0.6 0 -1.2
v 0.7 0 -1.2
v 0.8 0 -1.2
v -0.7 0 -1.3
v 0.7 0 -1.3
v -1 0 -1.4
v -0.9 0 -1.4
v 0.9 0 -1.4
v 1 0 -1.4
v -1.1 0 -1.5
v -1 0 -1.5
v -0.9 0 -1.5
v 0.9 0 -1.5
v 1 0 -1.5
v 1.1 0 -1.5
v -1.2 0 -1.6
v -1.1 0 -1.6
v -1 0 -1.6
v 1 0 -1.6
v 1.1 0 -1.6
v 1.2 0 -1.6
v -1.1 0 -1.7
v 1.1 0 -1.7
v -1.1 0.2 1.7
v 1.1 0.2 1.7
v -1.2 0.2 1.6
v -1.1 0.2 1.6
v -1 0.2 1.6
v 1 0.2 1.6
v 1.1 0.2 1.6
v 1.2 0.2 1.6
v -1.1 0.2 1.5
v -1 0.2 1.5
v 1 0.2 1.5
v 1.1 0.2 1.5
v -0.9 0.2 1.4
v -0.6 0.2 1.4
v -0.5 0.2 1.4
v -0.3 0.2 1.4
v -0.1 0.2 1.4
v 0 0.2 1.4
v 0.0999999 0.2 1.4
v 0.2 0.2 1.4
v 0.3 0.2 1.4
v 0.5 0.2 1.4
v 0.6 0.2 1.4
v 0.7 0.2 1.4
v 0.8 0.2 1.4
v 0.9 0.2 1.4
v -0.8 0.2 1.3
v -0.7 0.2 1.3
v -0.4 0.2 1.3
v -0.3 0.2 1.3
v -0.2 0.2 1.3
v 0.4 0.2 1.3
v 0.5 0.2 1.3
v -0.9 0.2 1.2
v -0.8 0.2 1.2
v 0 0.2 1.2
v 0.0999999 0.2 1.2
v 0.2 0.2 1.2
v 0.4 0.2 1.2
v 0.5 0.2 1.2
v 0.7 0.2 1.2
v 0.8 0.2 1.2
v 0.9 0.2 1.2
v 0 0.2 1.1
v 0.0999999 0.2 1.1
v 0.2 0.2 1.1
v 0.4 0.2 1.1
v 0.5 0.2 1.1
v 0.7 0.2 1.1
v 0.8 0.2 1.1
v 0.9 0.2 1.1
v -0.5 0.2 1
v -0.4 0.2 1
v -0.3 0.2 1
v 0.4 0.2 1
v 0.5 0.2 1
v 0.7 0.2 1
v 0.8 0.2 1
v 0.9 0.2 1
v -0.7 0.2 0.9
v -0.6 0.2 0.9
v -0.4 0.2 0.9
v -0.2 0.2 0.9
v -0.1 0.2 0.9
v 0 0.2 0.9
v 0.0999999 0.2 0.9
v 0.2 0.2 0.9
v 0.3 0.2 0.9
v 0.5 0.2 0.9
v 0.6 0.2 0.9
v 0.8 0.2 0.9
v -0.2 0.2 0.7
v 0.3 0.2 0.7
v -0.3 0.2 0.5
v -0.2 0.2 0.5
v 0 0.2 0.5
v 0.0999999 0.2 0.5
v 0.3 0.2 0.5
v 0.4 0.2 0.5
v -0.4 0.2 0.3
v -0.3 0.2 0.3
v -0.2 0.2 0.3
v 0.3 0.2 0.3
v 0.4 0.2 0.3
v 0.5 0.2 0.3
v 0.4 0.2 0.2
v 0.5 0.2 0.2
v 0.7 0.2 0.2
v 0.8 0.2 0.2
v 0.9 0.2 0.2
v -0.1 0.2 0.1
v 0 0.2 0.1
v 0.0999999 0.2 0.1
v 0.2 0.2 0.1
v 0.5 0.2 0.1
v 0.7 0.2 0.1
v 0.8 0.2 0.1
v 0.9 0.2 0.1
v 1 0.2 0.1
v -0.5 0.2 0
v -0.4 0.2 0
v -0.3 0.2 0
v 0.0999999 0.2 0
v 0.2 0.2 0
v 0.7 0.2 0
v 0.8 0.2 0
v 0.9 0.2 0
v 1 0.2 0
v -0.9 0.2 -0.0999999
v -0.8 0.2 -0.0999999
v -0.7 0.2 -0.0999999
v -0.5 0.2 -0.0999999
v -0.4 0.2 -0.0999999
v -0.2 0.2 -0.0999999
v -0.1 0.2 -0.0999999
v 0 0.2 -0.0999999
v 0.3 0.2 -0.0999999
v 0.7 0.2 -0.0999999
v 0.8 0.2 -0.0999999
v 0.9 0.2 -0.0999999
v -1 0.2 -0.2
v -0.9 0.2 -0.2
v -0.8 0.2 -0.2
v -0.7 0.2 -0.2
v -0.5 0.2 -0.2
v -0.3 0.2 -0.2
v -0.2 0.2 -0.2
v -1 0.2 -0.3
v -0.9 0.2 -0.3
v -0.8 0.2 -0.3
v -0.7 0.2 -0.3
v -0.3 0.2 -0.3
v -0.2 0.2 -0.3
v 0.2 0.2 -0.3
v 0.3 0.2 -0.3
v 0.4 0.2 -0.3
v -0.9 0.2 -0.4
v -0.8 0.2 -0.4
v -0.7 0.2 -0.4
v -0.3 0.2 -0.4
v -0.2 0.2 -0.4
v -0.1 0.2 -0.4
v 0 0.2 -0.4
v 0.3 0.2 -0.4
v 0.4 0.2 -0.4
v 0.5 0.2 -0.4
v 0.6 0.2 -0.4
v 0.7 0.2 -0.4
v -0.1 0.2 -0.5
v 0 0.2 -0.5
v 0.0999999 0.2 -0.5
v 0.4 0.2 -0.5
v 0.5 0.2 -0.5
v 0.6 0.2 -0.5
v 0.7 0.2 -0.5
v 0.8 0.2 -0.5
v 0 0.2 -0.6
v 0.0999999 0.2 -0.6
v 0.5 0.2 -0.6
v 0.6 0.2 -0.6
v 0.7 0.2 -0.6
v 0.8 0.2 -0.6
v 0.0999999 0.2 -0.7
v 0.5 0.2 -0.7
v 0.6 0.2 -0.7
v 0.7 0.2 -0.7
v -0.9 0.2 -0.9
v -0.6 0.2 -0.9
v -0.5 0.2 -0.9
v -0.3 0.2 -0.9
v -0.1 0.2 -0.9
v 0 0.2 -0.9
v 0.0999999 0.2 -0.9
v 0.2 0.2 -0.9
v 0.3 0.2 -0.9
v 0.5 0.2 -0.9
v 0.6 0.2 -0.9
v 0.7 0.2 -0.9
v 0.8 0.2 -0.9
v 0.9 0.2 -0.9
v -0.8 0.2 -1
v -0.7 0.2 -1
v -0.4 0.2 -1
v -0.3 0.2 -1
v -0.2 0.2 -1
v 0.4 0.2 -1
v 0.5 0.2 -1
v -0.9 0.2 -1.1
v -0.8 0.2 -1.1
v 0 0.2 -1.1
v 0.0999999 0.2 -1.1
v 0.2 0.2 -1.1
v 0.4 0.2 -1.1
v 0.5 0.2 -1.1
v 0.7 0.2 -1.1
v 0.8 0.2 -1.1
v 0.9 0.2 -1.1
v 0 0.2 -1.2
v 0.0999999 0.2 -1.2
v 0.2 0.2 -1.2
v 0.4 0.2 -1.2
v 0.5 0.2 -1.2
v 0.7 0.2 -1.2
v 0.8 0.2 -1.2
v 0.9 0.2 -1.2
v -0.5 0.2 -1.3
v -0.4 0.2 -1.3
v -0.3 0.2 -1.3
v 0.4 0.2 -1.3
v 0.5 0.2 -1.3
v 0.7 0.2 -1.3
v 0.8 0.2 -1.3
v 0.9 0.2 -1.3
v -0.7 0.2 -1.4
v -0.6 0.2 -1.4
v -0.4 0.2 -1.4
v -0.2 0.2 -1.4
v -0.1 0.2 -1.4
v 0 0.2 -1.4
v 0.0999999 0.2 -1.4
v 0.2 0.2 -1.4
v 0.3 0.2 -1.4
v 0.5 0.2 -1.4
v 0.6 0.2 -1.4
v 0.8 0.2 -1.4
v -1.1 0.2 -1.5
v -1 0.2 -1.5
v 1 0.2 -1.5
v 1.1 0.2 -1.5
v -1.2 0.2 -1.6
v -1.1 0.2 -1.6
v -1 0.2 -1.6
v 1 0.2 -1.6
v 1.1 0.2 -1.6
v 1.2 0.2 -1.6
v -1.1 0.2 -1.7
v 1.1 0.2 -1.7

# faces
f 3/2/1 2/2/1 1/2/1
f 4/2/1 2/2/1 3/2/1
f 9/2/1 6/2/1 5/2/1
f 10/2/1 6/2/1 9/2/1
f 11/2/1 8/2/1 7/2/1
f 12/2/1 8/2/1 11/2/1
f 13/2/2 14/2/2 17/2/2
f 17/2/2 14/2/2 18/2/2
f 15/2/2 16/2/2 19/2/2
f 19/2/2 16/2/2 20/2/2
f 21/2/2 22/2/2 23/2/2
f 23/2/2 22/2/2 24/2/2
f 27/2/3 26/2/3 25/2/3
f 28/2/3 26/2/3 27/2/3
f 31/2/3 30/2/3 29/2/3
f 32/2/3 30/2/3 31/2/3
f 35/2/3 34/2/3 33/2/3
f 36/2/3 34/2/3 35/2/3
f 37/2/4 38/2/4 39/2/4
f 39/2/4 38/2/4 40/2/4
f 41/2/4 42/2/4 43/2/4
f 43/2/4 42/2/4 44/2/4
f 45/2/4 46/2/4 47/2/4
f 47/2/4 46/2/4 48/2/4
f 52/2/5 50/2/5 49/2/5
f 53/2/5 50/2/5 52/2/5
f 54/2/5 50/2/5 53/2/5
f 55/2/5 50/2/5 54/2/5
f 57/2/5 52/2/5 51/2/5
f 57/2/5 53/2/5 52/2/5
f 58/1/5 54/1/5 53/1/5
f 58/2/5 53/2/5 57/2/5
f 59/1/5 54/1/5 58/1/5
f 60/1/5 54/1/5 59/1/5
f 61/2/5 56/2/5 55/2/5
f 61/1/5 54/1/5 60/1/5
f 61/2/5 55/2/5 54/2/5
f 62/2/5 56/2/5 61/2/5
f 63/1/5 59/1/5 58/1/5
f 63/1/5 58/1/5 57/1/5
f 64/2/5 60/2/5 59/2/5
f 64/1/5 59/1/5 63/1/5
f 65/1/5 62/1/5 61/1/5
f 65/2/5 60/2/5 64/2/5
f 65/1/5 61/1/5 60/1/5
f 66/1/5 62/1/5 65/1/5
f 67/2/5 64/2/5 63/2/5
f 67/2/5 65/2/5 64/2/5
f 67/2/5 66/2/5 65/2/5
f 68/2/5 66/2/5 67/2/5
f 69/2/5 67/2/5 63/2/5
f 70/1/5 68/1/5 67/1/5
f 70/2/5 67/2/5 69/2/5
f 71/1/5 68/1/5 70/1/5
f 72/1/5 68/1/5 71/1/5
f 73/2/5 66/2/5 68/2/5
f 73/1/5 68/1/5 72/1/5
f 74/2/5 66/2/5 73/2/5
f 75/1/5 70/1/5 69/1/5
f 75/1/5 71/1/5 70/1/5
f 76/2/5 72/2/5 71/2/5
f 76/1/5 71/1/5 75/1/5
f 77/1/5 74/1/5 73/1/5
f 77/2/5 72/2/5 76/2/5
f 77/1/5 73/1/5 72/1/5
f 78/1/5 74/1/5 77/1/5
f 79/2/5 76/2/5 75/2/5
f 79/2/5 77/2/5 76/2/5
f 79/2/5 78/2/5 77/2/5
f 80/2/5 78/2/5 79/2/5
f 81/2/5 79/2/5 75/2/5
f 82/1/5 80/1/5 79/1/5
f 82/2/5 79/2/5 81/2/5
f 83/1/5 80/1/5 82/1/5
f 84/1/5 80/1/5 83/1/5
f 85/2/5 78/2/5 80/2/5
f 85/1/5 80/1/5 84/1/5
f 86/2/5 78/2/5 85/2/5
f 87/1/5 82/1/5 81/1/5
f 87/1/5 83/1/5 82/1/5
f 88/2/5 84/2/5 83/2/5
f 88/1/5 83/1/5 87/1/5
f 89/1/5 86/1/5 85/1/5
f 89/2/5 84/2/5 88/2/5
f 89/1/5 85/1/5 84/1/5
f 90/1/5 86/1/5 89/1/5
f 91/1/5 87/1/5 81/1/5
f 91/2/5 88/2/5 87/2/5
f 91/2/5 90/2/5 89/2/5
f 91/2/5 89/2/5 88/2/5
f 92/2/5 90/2/5 91/2/5
f 93/2/5 90/2/5 92/2/5
f 94/1/5 86/1/5 90/1/5
f 94/2/5 90/2/5 93/2/5
f 95/2/5 81/2/5 75/2/5
f 95/1/5 91/1/5 81/1/5
f 95/1/5 92/1/5 91/1/5
f 96/1/5 92/1/5 95/1/5
f 97/2/5 93/2/5 92/2/5
f 97/1/5 92/1/5 96/1/5
f 98/1/5 94/1/5 93/1/5
f 98/2/5 93/2/5 97/2/5
f 99/1/5 86/1/5 94/1/5
f 99/1/5 94/1/5 98/1/5
f 100/2/5 78/2/5 86/2/5
f 100/1/5 86/1/5 99/1/5
f 101/2/5 96/2/5 95/2/5
f 101/1/5 98/1/5 97/1/5
f 101/1/5 99/1/5 98/1/5
f 101/1/5 97/1/5 96/1/5
f 102/2/5 100/2/5 99/2/5
f 102/1/5 99/1/5 101/1/5
f 103/1/5 75/1/5 69/1/5
f 103/2/5 101/2/5 95/2/5
f 103/2/5 102/2/5 101/2/5
f 103/2/5 95/2/5 75/2/5
f 104/2/5 102/2/5 103/2/5
f 105/2/5 100/2/5 102/2/5
f 105/2/5 102/2/5 104/2/5
f 105/2/5 78/2/5 100/2/5
f 106/1/5 74/1/5 78/1/5
f 106/2/5 78/2/5 105/2/5
f 107/1/5 104/1/5 103/1/5
f 107/2/5 69/2/5 63/2/5
f 107/1/5 103/1/5 69/1/5
f 108/1/5 104/1/5 107/1/5
f 109/2/5 105/2/5 104/2/5
f 109/1/5 104/1/5 108/1/5
f 110/1/5 106/1/5 105/1/5
f 110/2/5 105/2/5 109/2/5
f 111/1/5 74/1/5 106/1/5
f 111/1/5 106/1/5 110/1/5
f 112/2/5 66/2/5 74/2/5
f 112/1/5 74/1/5 111/1/5
f 113/1/5 110/1/5 109/1/5
f 113/1/5 109/1/5 108/1/5
f 113/1/5 111/1/5 110/1/5
f 113/2/5 108/2/5 107/2/5
f 114/2/5 112/2/5 111/2/5
f 114/1/5 111/1/5 113/1/5
f 115/1/5 63/1/5 57/1/5
f 115/2/5 113/2/5 107/2/5
f 115/2/5 114/2/5 113/2/5
f 115/2/5 107/2/5 63/2/5
f 116/2/5 114/2/5 115/2/5
f 117/2/5 112/2/5 114/2/5
f 117/2/5 114/2/5 116/2/5
f 117/2/5 66/2/5 112/2/5
f 118/1/5 62/1/5 66/1/5
f 118/2/5 66/2/5 117/2/5
f 119/1/5 116/1/5 115/1/5
f 119/2/5 57/2/5 51/2/5
f 119/1/5 115/1/5 57/1/5
f 120/1/5 116/1/5 119/1/5
f 121/2/5 117/2/5 116/2/5
f 121/1/5 116/1/5 120/1/5
f 122/1/5 118/1/5 117/1/5
f 122/2/5 117/2/5 121/2/5
f 123/1/5 62/1/5 118/1/5
f 123/1/5 118/1/5 122/1/5
f 124/2/5 56/2/5 62/2/5
f 124/1/5 62/1/5 123/1/5
f 125/2/5 120/2/5 119/2/5
f 125/2/5 119/2/5 51/2/5
f 126/2/5 120/2/5 125/2/5
f 127/1/5 122/1/5 121/1/5
f 127/2/5 120/2/5 126/2/5
f 127/1/5 123/1/5 122/1/5
f 127/1/5 121/1/5 120/1/5
f 128/2/5 124/2/5 123/2/5
f 128/1/5 123/1/5 127/1/5
f 129/2/5 56/2/5 124/2/5
f 129/2/5 124/2/5 128/2/5
f 130/2/5 56/2/5 129/2/5
f 131/2/5 127/2/5 126/2/5
f 131/2/5 129/2/5 128/2/5
f 131/2/5 128/2/5 127/2/5
f 132/2/5 129/2/5 131/2/5
f 133/2/6 134/2/6 136/2/6
f 136/2/6 134/2/6 137/2/6
f 137/2/6 134/2/6 138/2/6
f 138/2/6 134/2/6 139/2/6
f 135/2/6 136/2/6 141/2/6
f 136/2/6 137/2/6 141/2/6
f 137/1/6 138/1/6 142/1/6
f 141/2/6 137/2/6 142/2/6
f 139/2/6 140/2/6 143/2/6
f 142/1/6 138/1/6 143/1/6
f 138/2/6 139/2/6 143/2/6
f 143/2/6 140/2/6 144/2/6
f 141/1/6 142/1/6 145/1/6
f 142/1/6 143/1/6 145/1/6
f 143/1/6 144/1/6 145/1/6
f 145/1/6 144/1/6 146/1/6
f 146/1/6 144/1/6 147/1/6
f 147/1/6 144/1/6 148/1/6
f 148/1/6 144/1/6 149/1/6
f 149/1/6 144/1/6 150/1/6
f 150/1/6 144/1/6 151/1/6
f 151/1/6 144/1/6 152/1/6
f 152/1/6 144/1/6 153/1/6
f 153/1/6 144/1/6 154/1/6
f 154/1/6 144/1/6 155/1/6
f 155/1/6 144/1/6 156/1/6
f 156/1/6 144/1/6 157/1/6
f 157/1/6 144/1/6 158/1/6
f 145/2/6 146/2/6 159/2/6
f 159/2/6 146/2/6 160/2/6
f 147/2/6 148/2/6 161/2/6
f 148/1/6 149/1/6 162/1/6
f 161/2/6 148/2/6 162/2/6
f 162/1/6 149/1/6 163/1/6
f 153/2/6 154/2/6 164/2/6
f 154/1/6 155/1/6 165/1/6
f 164/2/6 154/2/6 165/2/6
f 141/1/6 145/1/6 166/1/6
f 145/2/6 159/2/6 166/2/6
f 159/1/6 160/1/6 167/1/6
f 166/2/6 159/2/6 167/2/6
f 149/2/6 150/2/6 168/2/6
f 150/1/6 151/1/6 168/1/6
f 151/2/6 152/2/6 169/2/6
f 168/1/6 151/1/6 169/1/6
f 152/1/6 153/1/6 170/1/6
f 169/2/6 152/2/6 170/2/6
f 153/2/6 164/2/6 171/2/6
f 164/1/6 165/1/6 171/1/6
f 165/1/6 155/1/6 172/1/6
f 171/1/6 165/1/6 172/1/6
f 155/2/6 156/2/6 173/2/6
f 156/1/6 157/1/6 173/1/6
f 157/2/6 158/2/6 174/2/6
f 173/1/6 157/1/6 174/1/6
f 158/1/6 144/1/6 175/1/6
f 174/2/6 158/2/6 175/2/6
f 149/2/6 168/2/6 176/2/6
f 168/2/6 169/2/6 176/2/6
f 169/1/6 170/1/6 177/1/6
f 176/2/6 169/2/6 177/2/6
f 170/1/6 153/1/6 178/1/6
f 177/1/6 170/1/6 178/1/6
f 153/2/6 171/2/6 179/2/6
f 171/2/6 172/2/6 179/2/6
f 172/1/6 155/1/6 180/1/6
f 179/2/6 172/2/6 180/2/6
f 173/2/6 174/2/6 181/2/6
f 155/2/6 173/2/6 181/2/6
f 174/1/6 175/1/6 182/1/6
f 181/2/6 174/2/6 182/2/6
f 175/1/6 144/1/6 183/1/6
f 182/1/6 175/1/6 183/1/6
f 146/1/6 147/1/6 184/1/6
f 147/2/6 161/2/6 184/2/6
f 161/1/6 162/1/6 185/1/6
f 184/2/6 161/2/6 185/2/6
f 162/2/6 163/2/6 186/2/6
f 185/1/6 162/1/6 186/1/6
f 153/2/6 179/2/6 187/2/6
f 179/1/6 180/1/6 187/1/6
f 180/1/6 155/1/6 188/1/6
f 187/1/6 180/1/6 188/1/6
f 181/1/6 182/1/6 189/1/6
f 155/2/6 181/2/6 189/2/6
f 182/2/6 183/2/6 190/2/6
f 189/1/6 182/1/6 190/1/6
f 183/1/6 144/1/6 191/1/6
f 190/2/6 183/2/6 191/2/6
f 160/2/6 146/2/6 192/2/6
f 167/1/6 160/1/6 192/1/6
f 166/1/6 167/1/6 192/1/6
f 184/1/6 185/1/6 193/1/6
f 192/2/6 146/2/6 193/2/6
f 146/1/6 184/1/6 193/1/6
f 185/2/6 186/2/6 194/2/6
f 193/1/6 185/1/6 194/1/6
f 163/1/6 149/1/6 195/1/6
f 194/2/6 186/2/6 195/2/6
f 186/2/6 163/2/6 195/2/6
f 149/2/6 176/2/6 196/2/6
f 195/1/6 149/1/6 196/1/6
f 176/1/6 177/1/6 197/1/6
f 196/2/6 176/2/6 197/2/6
f 177/2/6 178/2/6 198/2/6
f 197/1/6 177/1/6 198/1/6
f 178/1/6 153/1/6 199/1/6
f 198/2/6 178/2/6 199/2/6
f 153/2/6 187/2/6 200/2/6
f 199/1/6 153/1/6 200/1/6
f 187/2/6 188/2/6 200/2/6
f 188/1/6 155/1/6 201/1/6
f 200/2/6 188/2/6 201/2/6
f 189/2/6 190/2/6 202/2/6
f 201/1/6 155/1/6 202/1/6
f 155/2/6 189/2/6 202/2/6
f 190/1/6 191/1/6 203/1/6
f 202/2/6 190/2/6 203/2/6
f 197/1/6 198/1/6 204/1/6
f 198/1/6 199/1/6 204/1/6
f 202/1/6 203/1/6 204/1/6
f 196/1/6 197/1/6 204/1/6
f 200/1/6 201/1/6 204/1/6
f 195/1/6 196/1/6 204/1/6
f 193/1/6 194/1/6 204/1/6
f 194/1/6 195/1/6 204/1/6
f 199/1/6 200/1/6 204/1/6
f 192/1/6 193/1/6 204/1/6
f 201/1/6 202/1/6 204/1/6
f 204/1/6 203/1/6 205/1/6
f 192/1/6 204/1/6 206/1/6
f 204/2/6 205/2/6 207/2/6
f 206/1/6 204/1/6 207/1/6
f 207/2/6 205/2/6 208/2/6
f 208/2/6 205/2/6 209/2/6
f 205/1/6 203/1/6 210/1/6
f 209/2/6 205/2/6 210/2/6
f 210/1/6 203/1/6 211/1/6
f 192/1/6 206/1/6 212/1/6
f 206/2/6 207/2/6 213/2/6
f 212/1/6 206/1/6 213/1/6
f 207/5/6 208/5/6 214/5/6
f 213/2/6 207/2/6 214/2/6
f 209/4/6 210/4/6 215/4/6
f 210/2/6 211/2/6 215/2/6
f 211/1/6 203/1/6 216/1/6
f 215/2/6 211/2/6 216/2/6
f 216/1/6 203/1/6 217/1/6
f 215/4/6 216/4/6 218/4/6
f 216/2/6 217/2/6 218/2/6
f 217/1/6 203/1/6 219/1/6
f 218/2/6 217/2/6 219/2/6
f 219/1/6 203/1/6 220/1/6
f 203/1/6 191/1/6 221/1/6
f 220/1/6 203/1/6 221/1/6
f 191/1/6 144/1/6 222/1/6
f 221/1/6 191/1/6 222/1/6
f 214/5/6 208/5/6 223/5/6
f 213/5/6 214/5/6 223/5/6
f 208/2/6 209/2/6 224/2/6
f 223/5/6 208/5/6 224/5/6
f 209/4/6 215/4/6 225/4/6
f 224/2/6 209/2/6 225/2/6
f 215/4/6 218/4/6 225/4/6
f 218/4/6 219/4/6 225/4/6
f 225/4/6 219/4/6 226/4/6
f 219/2/6 220/2/6 227/2/6
f 226/4/6 219/4/6 227/4/6
f 220/1/6 221/1/6 228/1/6
f 227/2/6 220/2/6 228/2/6
f 221/2/6 222/2/6 229/2/6
f 228/1/6 221/1/6 229/1/6
f 222/1/6 144/1/6 230/1/6
f 229/2/6 222/2/6 230/2/6
f 230/1/6 144/1/6 231/1/6
f 192/1/6 212/1/6 232/1/6
f 212/2/6 213/2/6 233/2/6
f 232/1/6 212/1/6 233/1/6
f 213/5/6 223/5/6 234/5/6
f 233/2/6 213/2/6 234/2/6
f 225/2/6 226/2/6 235/2/6
f 224/3/6 225/3/6 235/3/6
f 226/4/6 227/4/6 236/4/6
f 235/2/6 226/2/6 236/2/6
f 227/4/6 228/4/6 236/4/6
f 228/2/6 229/2/6 237/2/6
f 236/4/6 228/4/6 237/4/6
f 229/1/6 230/1/6 238/1/6
f 237/2/6 229/2/6 238/2/6
f 230/2/6 231/2/6 239/2/6
f 238/1/6 230/1/6 239/1/6
f 231/1/6 144/1/6 240/1/6
f 239/2/6 231/2/6 240/2/6
f 141/1/6 166/1/6 241/1/6
f 166/1/6 192/1/6 241/1/6
f 192/1/6 232/1/6 241/1/6
f 241/1/6 232/1/6 242/1/6
f 242/1/6 232/1/6 243/1/6
f 232/2/6 233/2/6 244/2/6
f 243/1/6 232/1/6 244/1/6
f 233/5/6 234/5/6 245/5/6
f 244/2/6 233/2/6 245/2/6
f 234/5/6 223/5/6 246/5/6
f 245/5/6 234/5/6 246/5/6
f 223/2/6 224/2/6 247/2/6
f 246/5/6 223/5/6 247/5/6
f 224/3/6 235/3/6 248/3/6
f 247/2/6 224/2/6 248/2/6
f 235/3/6 236/3/6 248/3/6
f 236/2/6 237/2/6 249/2/6
f 237/1/6 238/1/6 250/1/6
f 249/2/6 237/2/6 250/2/6
f 238/2/6 239/2/6 251/2/6
f 250/1/6 238/1/6 251/1/6
f 239/1/6 240/1/6 252/1/6
f 251/2/6 239/2/6 252/2/6
f 141/1/6 241/1/6 253/1/6
f 241/2/6 242/2/6 254/2/6
f 253/1/6 241/1/6 254/1/6
f 242/1/6 243/1/6 255/1/6
f 254/2/6 242/2/6 255/2/6
f 243/2/6 244/2/6 256/2/6
f 255/1/6 243/1/6 256/1/6
f 244/5/6 245/5/6 257/5/6
f 256/2/6 244/2/6 257/2/6
f 245/5/6 246/5/6 257/5/6
f 257/5/6 246/5/6 258/5/6
f 246/2/6 247/2/6 259/2/6
f 258/5/6 246/5/6 259/5/6
f 253/2/6 254/2/6 260/2/6
f 141/1/6 253/1/6 260/1/6
f 254/1/6 255/1/6 261/1/6
f 260/2/6 254/2/6 261/2/6
f 255/2/6 256/2/6 262/2/6
f 261/1/6 255/1/6 262/1/6
f 257/5/6 258/5/6 263/5/6
f 262/2/6 256/2/6 263/2/6
f 256/5/6 257/5/6 263/5/6
f 258/2/6 259/2/6 264/2/6
f 263/5/6 258/5/6 264/5/6
f 259/2/6 247/2/6 265/2/6
f 264/2/6 259/2/6 265/2/6
f 248/3/6 236/3/6 266/3/6
f 236/2/6 249/2/6 266/2/6
f 247/3/6 248/3/6 266/3/6
f 250/1/6 251/1/6 267/1/6
f 266/2/6 249/2/6 267/2/6
f 251/1/6 252/1/6 267/1/6
f 249/1/6 250/1/6 267/1/6
f 267/1/6 252/1/6 268/1/6
f 260/1/6 261/1/6 269/1/6
f 261/2/6 262/2/6 269/2/6
f 262/1/6 263/1/6 270/1/6
f 269/2/6 262/2/6 270/2/6
f 263/2/6 264/2/6 271/2/6
f 270/1/6 263/1/6 271/1/6
f 264/1/6 265/1/6 272/1/6
f 271/2/6 264/2/6 272/2/6
f 265/2/6 247/2/6 273/2/6
f 272/1/6 265/1/6 273/1/6
f 247/3/6 266/3/6 274/3/6
f 273/2/6 247/2/6 274/2/6
f 266/3/6 267/3/6 274/3/6
f 274/3/6 267/3/6 275/3/6
f 267/2/6 268/2/6 276/2/6
f 275/3/6 267/3/6 276/3/6
f 268/1/6 252/1/6 277/1/6
f 276/2/6 268/2/6 277/2/6
f 277/1/6 252/1/6 278/1/6
f 278/1/6 252/1/6 279/1/6
f 279/1/6 252/1/6 280/1/6
f 272/1/6 273/1/6 281/1/6
f 274/2/6 275/2/6 281/2/6
f 269/1/6 270/1/6 281/1/6
f 271/1/6 272/1/6 281/1/6
f 270/1/6 271/1/6 281/1/6
f 273/1/6 274/1/6 281/1/6
f 275/3/6 276/3/6 282/3/6
f 281/2/6 275/2/6 282/2/6
f 276/3/6 277/3/6 282/3/6
f 282/3/6 277/3/6 283/3/6
f 277/2/6 278/2/6 284/2/6
f 283/3/6 277/3/6 284/3/6
f 278/1/6 279/1/6 285/1/6
f 284/2/6 278/2/6 285/2/6
f 279/2/6 280/2/6 286/2/6
f 285/1/6 279/1/6 286/1/6
f 280/1/6 252/1/6 287/1/6
f 286/2/6 280/2/6 287/2/6
f 287/1/6 252/1/6 288/1/6
f 282/2/6 283/2/6 289/2/6
f 281/1/6 282/1/6 289/1/6
f 284/3/6 285/3/6 290/3/6
f 289/2/6 283/2/6 290/2/6
f 283/3/6 284/3/6 290/3/6
f 285/2/6 286/2/6 291/2/6
f 290/3/6 285/3/6 291/3/6
f 286/1/6 287/1/6 292/1/6
f 291/2/6 286/2/6 292/2/6
f 287/2/6 288/2/6 293/2/6
f 292/1/6 287/1/6 293/1/6
f 288/1/6 252/1/6 294/1/6
f 293/2/6 288/2/6 294/2/6
f 289/1/6 290/1/6 295/1/6
f 290/2/6 291/2/6 295/2/6
f 291/1/6 292/1/6 296/1/6
f 295/2/6 291/2/6 296/2/6
f 292/2/6 293/2/6 297/2/6
f 296/1/6 292/1/6 297/1/6
f 293/1/6 294/1/6 298/1/6
f 297/2/6 293/2/6 298/2/6
f 269/1/6 281/1/6 299/1/6
f 281/1/6 289/1/6 299/1/6
f 297/1/6 298/1/6 299/1/6
f 289/1/6 295/1/6 299/1/6
f 260/1/6 269/1/6 299/1/6
f 295/1/6 296/1/6 299/1/6
f 296/1/6 297/1/6 299/1/6
f 299/1/6 298/1/6 300/1/6
f 300/1/6 298/1/6 301/1/6
f 301/1/6 298/1/6 302/1/6
f 302/1/6 298/1/6 303/1/6
f 303/1/6 298/1/6 304/1/6
f 304/1/6 298/1/6 305/1/6
f 305/1/6 298/1/6 306/1/6
f 306/1/6 298/1/6 307/1/6
f 307/1/6 298/1/6 308/1/6
f 308/1/6 298/1/6 309/1/6
f 298/1/6 294/1/6 310/1/6
f 309/1/6 298/1/6 310/1/6
f 294/1/6 252/1/6 311/1/6
f 310/1/6 294/1/6 311/1/6
f 252/1/6 240/1/6 312/1/6
f 311/1/6 252/1/6 312/1/6
f 299/2/6 300/2/6 313/2/6
f 313/2/6 300/2/6 314/2/6
f 301/2/6 302/2/6 315/2/6
f 302/1/6 303/1/6 316/1/6
f 315/2/6 302/2/6 316/2/6
f 316/1/6 303/1/6 317/1/6
f 307/2/6 308/2/6 318/2/6
f 308/1/6 309/1/6 319/1/6
f 318/2/6 308/2/6 319/2/6
f 260/1/6 299/1/6 320/1/6
f 299/2/6 313/2/6 320/2/6
f 313/1/6 314/1/6 321/1/6
f 320/2/6 313/2/6 321/2/6
f 303/2/6 304/2/6 322/2/6
f 304/1/6 305/1/6 322/1/6
f 305/2/6 306/2/6 323/2/6
f 322/1/6 305/1/6 323/1/6
f 306/1/6 307/1/6 324/1/6
f 323/2/6 306/2/6 324/2/6
f 307/2/6 318/2/6 325/2/6
f 318/1/6 319/1/6 325/1/6
f 319/1/6 309/1/6 326/1/6
f 325/1/6 319/1/6 326/1/6
f 309/2/6 310/2/6 327/2/6
f 310/1/6 311/1/6 327/1/6
f 311/2/6 312/2/6 328/2/6
f 327/1/6 311/1/6 328/1/6
f 312/1/6 240/1/6 329/1/6
f 328/2/6 312/2/6 329/2/6
f 303/2/6 322/2/6 330/2/6
f 322/2/6 323/2/6 330/2/6
f 323/1/6 324/1/6 331/1/6
f 330/2/6 323/2/6 331/2/6
f 324/1/6 307/1/6 332/1/6
f 331/1/6 324/1/6 332/1/6
f 325/2/6 326/2/6 333/2/6
f 307/2/6 325/2/6 333/2/6
f 326/1/6 309/1/6 334/1/6
f 333/2/6 326/2/6 334/2/6
f 327/2/6 328/2/6 335/2/6
f 309/2/6 327/2/6 335/2/6
f 328/1/6 329/1/6 336/1/6
f 335/2/6 328/2/6 336/2/6
f 329/1/6 240/1/6 337/1/6
f 336/1/6 329/1/6 337/1/6
f 300/1/6 301/1/6 338/1/6
f 301/2/6 315/2/6 338/2/6
f 315/1/6 316/1/6 339/1/6
f 338/2/6 315/2/6 339/2/6
f 316/2/6 317/2/6 340/2/6
f 339/1/6 316/1/6 340/1/6
f 307/2/6 333/2/6 341/2/6
f 333/1/6 334/1/6 341/1/6
f 334/1/6 309/1/6 342/1/6
f 341/1/6 334/1/6 342/1/6
f 335/1/6 336/1/6 343/1/6
f 309/2/6 335/2/6 343/2/6
f 336/2/6 337/2/6 344/2/6
f 343/1/6 336/1/6 344/1/6
f 337/1/6 240/1/6 345/1/6
f 344/2/6 337/2/6 345/2/6
f 314/2/6 300/2/6 346/2/6
f 321/1/6 314/1/6 346/1/6
f 320/1/6 321/1/6 346/1/6
f 338/1/6 339/1/6 347/1/6
f 346/2/6 300/2/6 347/2/6
f 300/1/6 338/1/6 347/1/6
f 339/2/6 340/2/6 348/2/6
f 347/1/6 339/1/6 348/1/6
f 340/2/6 317/2/6 349/2/6
f 348/2/6 340/2/6 349/2/6
f 317/1/6 303/1/6 349/1/6
f 303/2/6 330/2/6 350/2/6
f 349/1/6 303/1/6 350/1/6
f 330/1/6 331/1/6 351/1/6
f 350/2/6 330/2/6 351/2/6
f 331/2/6 332/2/6 352/2/6
f 351/1/6 331/1/6 352/1/6
f 332/1/6 307/1/6 353/1/6
f 352/2/6 332/2/6 353/2/6
f 307/2/6 341/2/6 354/2/6
f 353/1/6 307/1/6 354/1/6
f 341/2/6 342/2/6 354/2/6
f 342/1/6 309/1/6 355/1/6
f 354/2/6 342/2/6 355/2/6
f 343/2/6 344/2/6 356/2/6
f 355/1/6 309/1/6 356/1/6
f 309/2/6 343/2/6 356/2/6
f 344/1/6 345/1/6 357/1/6
f 356/2/6 344/2/6 357/2/6
f 135/2/6 141/2/6 358/2/6
f 349/1/6 350/1/6 358/1/6
f 356/1/6 357/1/6 358/1/6
f 260/1/6 320/1/6 358/1/6
f 348/1/6 349/1/6 358/1/6
f 353/1/6 354/1/6 358/1/6
f 320/1/6 346/1/6 358/1/6
f 355/1/6 356/1/6 358/1/6
f 346/1/6 347/1/6 358/1/6
f 347/1/6 348/1/6 358/1/6
f 354/1/6 355/1/6 358/1/6
f 352/1/6 353/1/6 358/1/6
f 350/1/6 351/1/6 358/1/6
f 351/1/6 352/1/6 358/1/6
f 141/1/6 260/1/6 358/1/6
f 358/1/6 357/1/6 359/1/6
f 357/1/6 345/1/6 360/1/6
f 359/1/6 357/1/6 360/1/6
f 345/1/6 240/1/6 360/1/6
f 240/1/6 144/1/6 360/1/6
f 144/2/6 140/2/6 361/2/6
f 360/1/6 144/1/6 361/1/6
f 358/2/6 359/2/6 362/2/6
f 135/2/6 358/2/6 362/2/6
f 362/2/6 359/2/6 363/2/6
f 359/1/6 360/1/6 364/1/6
f 363/2/6 359/2/6 364/2/6
f 360/2/6 361/2/6 365/2/6
f 364/1/6 360/1/6 365/1/6
f 361/2/6 140/2/6 366/2/6
f 365/2/6 361/2/6 366/2/6
f 366/2/6 140/2/6 367/2/6
f 364/2/6 365/2/6 368/2/6
f 365/2/6 366/2/6 368/2/6
f 363/2/6 364/2/6 368/2/6
f 368/2/6 366/2/6 369/2/6
