# MagicaVoxel @ Ephtracy

# group
o 

# material
mtllib card-diamonds-white-black-q.mtl
usemtl palette

# normals
vn -1 0 0
vn 1 0 0
vn 0 0 1
vn 0 0 -1
vn 0 -1 0
vn 0 1 0

# texcoords
vt 0.939453 0.5
vt 0.970703 0.5
vt 0.978516 0.5

# verts
v -1.2 0 1.6
v -1.2 0 -1.6
v -1.2 0.2 1.6
v -1.2 0.2 -1.6
v -1.1 0 1.7
v -1.1 0 1.6
v -1.1 0 -1.6
v -1.1 0 -1.7
v -1.1 0.2 1.7
v -1.1 0.2 1.6
v -1.1 0.2 -1.6
v -1.1 0.2 -1.7
v 1.1 0 1.7
v 1.1 0 1.6
v 1.1 0 -1.6
v 1.1 0 -1.7
v 1.1 0.2 1.7
v 1.1 0.2 1.6
v 1.1 0.2 -1.6
v 1.1 0.2 -1.7
v 1.2 0 1.6
v 1.2 0 -1.6
v 1.2 0.2 1.6
v 1.2 0.2 -1.6
v -1.1 0 1.7
v -1.1 0.2 1.7
v 1.1 0 1.7
v 1.1 0.2 1.7
v -1.2 0 1.6
v -1.2 0.2 1.6
v -1.1 0 1.6
v -1.1 0.2 1.6
v 1.1 0 1.6
v 1.1 0.2 1.6
v 1.2 0 1.6
v 1.2 0.2 1.6
v -1.2 0 -1.6
v -1.2 0.2 -1.6
v -1.1 0 -1.6
v -1.1 0.2 -1.6
v 1.1 0 -1.6
v 1.1 0.2 -1.6
v 1.2 0 -1.6
v 1.2 0.2 -1.6
v -1.1 0 -1.7
v -1.1 0.2 -1.7
v 1.1 0 -1.7
v 1.1 0.2 -1.7
v -1.1 0 1.7
v 1.1 0 1.7
v -1.2 0 1.6
v -1.1 0 1.6
v -1 0 1.6
v 1 0 1.6
v 1.1 0 1.6
v 1.2 0 1.6
v -1.1 0 1.5
v -1 0 1.5
v -0.9 0 1.5
v 0.9 0 1.5
v 1 0 1.5
v 1.1 0 1.5
v -1 0 1.4
v -0.9 0 1.4
v 0.9 0 1.4
v 1 0 1.4
v -0.7 0 1.3
v 0.7 0 1.3
v -0.8 0 1.2
v -0.7 0 1.2
v -0.6 0 1.2
v 0.6 0 1.2
v 0.7 0 1.2
v 0.8 0 1.2
v -0.7 0 1.1
v -0.6 0 1.1
v 0.6 0 1.1
v 0.7 0 1.1
v -0.4 0 1
v 0.4 0 1
v -0.5 0 0.9
v -0.4 0 0.9
v -0.3 0 0.9
v 0.3 0 0.9
v 0.4 0 0.9
v 0.5 0 0.9
v -0.4 0 0.8
v -0.3 0 0.8
v 0.3 0 0.8
v 0.4 0 0.8
v -0.4 0 -0.8
v -0.3 0 -0.8
v 0.3 0 -0.8
v 0.4 0 -0.8
v -0.5 0 -0.9
v -0.4 0 -0.9
v -0.3 0 -0.9
v 0.3 0 -0.9
v 0.4 0 -0.9
v 0.5 0 -0.9
v -0.4 0 -1
v 0.4 0 -1
v -0.7 0 -1.1
v -0.6 0 -1.1
v 0.6 0 -1.1
v 0.7 0 -1.1
v -0.8 0 -1.2
v -0.7 0 -1.2
v -0.6 0 -1.2
v 0.6 0 -1.2
v 0.7 0 -1.2
v 0.8 0 -1.2
v -0.7 0 -1.3
v 0.7 0 -1.3
v -1 0 -1.4
v -0.9 0 -1.4
v 0.9 0 -1.4
v 1 0 -1.4
v -1.1 0 -1.5
v -1 0 -1.5
v -0.9 0 -1.5
v 0.9 0 -1.5
v 1 0 -1.5
v 1.1 0 -1.5
v -1.2 0 -1.6
v -1.1 0 -1.6
v -1 0 -1.6
v 1 0 -1.6
v 1.1 0 -1.6
v 1.2 0 -1.6
v -1.1 0 -1.7
v 1.1 0 -1.7
v -1.1 0.2 1.7
v 1.1 0.2 1.7
v -1.2 0.2 1.6
v -1.1 0.2 1.6
v -1 0.2 1.6
v 1 0.2 1.6
v 1.1 0.2 1.6
v 1.2 0.2 1.6
v -1.1 0.2 1.5
v -1 0.2 1.5
v 1 0.2 1.5
v 1.1 0.2 1.5
v 0.6 0.2 1.4
v 0.8 0.2 1.4
v 0.9 0.2 1.4
v 1 0.2 1.4
v 0.7 0.2 1.3
v 0.8 0.2 1.3
v 0.9 0.2 1.3
v 1 0.2 1.3
v 0.7 0.2 1
v 0.8 0.2 1
v 0.6 0.2 0.9
v 0.9 0.2 0.9
v -0.1 0.2 0.6
v 0.0999999 0.2 0.6
v -0.2 0.2 0.5
v -0.1 0.2 0.5
v 0.0999999 0.2 0.5
v 0.2 0.2 0.5
v -0.3 0.2 0.4
v -0.2 0.2 0.4
v 0.2 0.2 0.4
v 0.3 0.2 0.4
v -0.4 0.2 0.3
v -0.3 0.2 0.3
v 0.3 0.2 0.3
v 0.4 0.2 0.3
v -0.5 0.2 0.2
v -0.4 0.2 0.2
v 0.4 0.2 0.2
v 0.5 0.2 0.2
v -0.6 0.2 0.1
v -0.5 0.2 0.1
v 0.5 0.2 0.1
v 0.6 0.2 0.1
v -0.6 0.2 -0.0999999
v -0.5 0.2 -0.0999999
v 0.5 0.2 -0.0999999
v 0.6 0.2 -0.0999999
v -0.5 0.2 -0.2
v -0.4 0.2 -0.2
v 0.4 0.2 -0.2
v 0.5 0.2 -0.2
v -0.4 0.2 -0.3
v -0.3 0.2 -0.3
v 0.3 0.2 -0.3
v 0.4 0.2 -0.3
v -0.3 0.2 -0.4
v -0.2 0.2 -0.4
v 0.2 0.2 -0.4
v 0.3 0.2 -0.4
v -0.2 0.2 -0.5
v -0.1 0.2 -0.5
v 0.0999999 0.2 -0.5
v 0.2 0.2 -0.5
v -0.1 0.2 -0.6
v 0.0999999 0.2 -0.6
v -0.9 0.2 -0.9
v -0.7 0.2 -0.9
v -0.6 0.2 -0.9
v -0.5 0.2 -0.9
v -0.8 0.2 -1
v -0.7 0.2 -1
v -0.6 0.2 -1
v -0.5 0.2 -1
v -0.8 0.2 -1.3
v -0.7 0.2 -1.3
v -0.9 0.2 -1.4
v -0.6 0.2 -1.4
v -1.1 0.2 -1.5
v -1 0.2 -1.5
v 1 0.2 -1.5
v 1.1 0.2 -1.5
v -1.2 0.2 -1.6
v -1.1 0.2 -1.6
v -1 0.2 -1.6
v 1 0.2 -1.6
v 1.1 0.2 -1.6
v 1.2 0.2 -1.6
v -1.1 0.2 -1.7
v 1.1 0.2 -1.7

# faces
f 3/2/1 2/2/1 1/2/1
f 4/2/1 2/2/1 3/2/1
f 9/2/1 6/2/1 5/2/1
f 10/2/1 6/2/1 9/2/1
f 11/2/1 8/2/1 7/2/1
f 12/2/1 8/2/1 11/2/1
f 13/2/2 14/2/2 17/2/2
f 17/2/2 14/2/2 18/2/2
f 15/2/2 16/2/2 19/2/2
f 19/2/2 16/2/2 20/2/2
f 21/2/2 22/2/2 23/2/2
f 23/2/2 22/2/2 24/2/2
f 27/2/3 26/2/3 25/2/3
f 28/2/3 26/2/3 27/2/3
f 31/2/3 30/2/3 29/2/3
f 32/2/3 30/2/3 31/2/3
f 35/2/3 34/2/3 33/2/3
f 36/2/3 34/2/3 35/2/3
f 37/2/4 38/2/4 39/2/4
f 39/2/4 38/2/4 40/2/4
f 41/2/4 42/2/4 43/2/4
f 43/2/4 42/2/4 44/2/4
f 45/2/4 46/2/4 47/2/4
f 47/2/4 46/2/4 48/2/4
f 52/2/5 50/2/5 49/2/5
f 53/2/5 50/2/5 52/2/5
f 54/2/5 50/2/5 53/2/5
f 55/2/5 50/2/5 54/2/5
f 57/2/5 52/2/5 51/2/5
f 57/2/5 53/2/5 52/2/5
f 58/1/5 54/1/5 53/1/5
f 58/2/5 53/2/5 57/2/5
f 59/1/5 54/1/5 58/1/5
f 60/1/5 54/1/5 59/1/5
f 61/2/5 56/2/5 55/2/5
f 61/1/5 54/1/5 60/1/5
f 61/2/5 55/2/5 54/2/5
f 62/2/5 56/2/5 61/2/5
f 63/1/5 59/1/5 58/1/5
f 63/1/5 58/1/5 57/1/5
f 64/2/5 60/2/5 59/2/5
f 64/1/5 59/1/5 63/1/5
f 65/1/5 62/1/5 61/1/5
f 65/2/5 60/2/5 64/2/5
f 65/1/5 61/1/5 60/1/5
f 66/1/5 62/1/5 65/1/5
f 67/2/5 64/2/5 63/2/5
f 67/2/5 65/2/5 64/2/5
f 67/2/5 66/2/5 65/2/5
f 68/2/5 66/2/5 67/2/5
f 69/2/5 67/2/5 63/2/5
f 70/1/5 68/1/5 67/1/5
f 70/2/5 67/2/5 69/2/5
f 71/1/5 68/1/5 70/1/5
f 72/1/5 68/1/5 71/1/5
f 73/2/5 66/2/5 68/2/5
f 73/1/5 68/1/5 72/1/5
f 74/2/5 66/2/5 73/2/5
f 75/1/5 70/1/5 69/1/5
f 75/1/5 71/1/5 70/1/5
f 76/2/5 72/2/5 71/2/5
f 76/1/5 71/1/5 75/1/5
f 77/1/5 74/1/5 73/1/5
f 77/2/5 72/2/5 76/2/5
f 77/1/5 73/1/5 72/1/5
f 78/1/5 74/1/5 77/1/5
f 79/2/5 76/2/5 75/2/5
f 79/2/5 77/2/5 76/2/5
f 79/2/5 78/2/5 77/2/5
f 80/2/5 78/2/5 79/2/5
f 81/2/5 79/2/5 75/2/5
f 82/1/5 80/1/5 79/1/5
f 82/2/5 79/2/5 81/2/5
f 83/1/5 80/1/5 82/1/5
f 84/1/5 80/1/5 83/1/5
f 85/2/5 78/2/5 80/2/5
f 85/1/5 80/1/5 84/1/5
f 86/2/5 78/2/5 85/2/5
f 87/1/5 82/1/5 81/1/5
f 87/1/5 83/1/5 82/1/5
f 88/2/5 84/2/5 83/2/5
f 88/1/5 83/1/5 87/1/5
f 89/1/5 86/1/5 85/1/5
f 89/2/5 84/2/5 88/2/5
f 89/1/5 85/1/5 84/1/5
f 90/1/5 86/1/5 89/1/5
f 91/1/5 87/1/5 81/1/5
f 91/2/5 88/2/5 87/2/5
f 91/2/5 90/2/5 89/2/5
f 91/2/5 89/2/5 88/2/5
f 92/2/5 90/2/5 91/2/5
f 93/2/5 90/2/5 92/2/5
f 94/1/5 86/1/5 90/1/5
f 94/2/5 90/2/5 93/2/5
f 95/2/5 81/2/5 75/2/5
f 95/1/5 91/1/5 81/1/5
f 95/1/5 92/1/5 91/1/5
f 96/1/5 92/1/5 95/1/5
f 97/2/5 93/2/5 92/2/5
f 97/1/5 92/1/5 96/1/5
f 98/1/5 94/1/5 93/1/5
f 98/2/5 93/2/5 97/2/5
f 99/1/5 86/1/5 94/1/5
f 99/1/5 94/1/5 98/1/5
f 100/2/5 78/2/5 86/2/5
f 100/1/5 86/1/5 99/1/5
f 101/2/5 96/2/5 95/2/5
f 101/1/5 98/1/5 97/1/5
f 101/1/5 99/1/5 98/1/5
f 101/1/5 97/1/5 96/1/5
f 102/2/5 100/2/5 99/2/5
f 102/1/5 99/1/5 101/1/5
f 103/1/5 75/1/5 69/1/5
f 103/2/5 101/2/5 95/2/5
f 103/2/5 102/2/5 101/2/5
f 103/2/5 95/2/5 75/2/5
f 104/2/5 102/2/5 103/2/5
f 105/2/5 100/2/5 102/2/5
f 105/2/5 102/2/5 104/2/5
f 105/2/5 78/2/5 100/2/5
f 106/1/5 74/1/5 78/1/5
f 106/2/5 78/2/5 105/2/5
f 107/1/5 104/1/5 103/1/5
f 107/2/5 69/2/5 63/2/5
f 107/1/5 103/1/5 69/1/5
f 108/1/5 104/1/5 107/1/5
f 109/2/5 105/2/5 104/2/5
f 109/1/5 104/1/5 108/1/5
f 110/1/5 106/1/5 105/1/5
f 110/2/5 105/2/5 109/2/5
f 111/1/5 74/1/5 106/1/5
f 111/1/5 106/1/5 110/1/5
f 112/2/5 66/2/5 74/2/5
f 112/1/5 74/1/5 111/1/5
f 113/1/5 110/1/5 109/1/5
f 113/1/5 109/1/5 108/1/5
f 113/1/5 111/1/5 110/1/5
f 113/2/5 108/2/5 107/2/5
f 114/2/5 112/2/5 111/2/5
f 114/1/5 111/1/5 113/1/5
f 115/1/5 63/1/5 57/1/5
f 115/2/5 113/2/5 107/2/5
f 115/2/5 114/2/5 113/2/5
f 115/2/5 107/2/5 63/2/5
f 116/2/5 114/2/5 115/2/5
f 117/2/5 112/2/5 114/2/5
f 117/2/5 114/2/5 116/2/5
f 117/2/5 66/2/5 112/2/5
f 118/1/5 62/1/5 66/1/5
f 118/2/5 66/2/5 117/2/5
f 119/1/5 116/1/5 115/1/5
f 119/2/5 57/2/5 51/2/5
f 119/1/5 115/1/5 57/1/5
f 120/1/5 116/1/5 119/1/5
f 121/2/5 117/2/5 116/2/5
f 121/1/5 116/1/5 120/1/5
f 122/1/5 118/1/5 117/1/5
f 122/2/5 117/2/5 121/2/5
f 123/1/5 62/1/5 118/1/5
f 123/1/5 118/1/5 122/1/5
f 124/2/5 56/2/5 62/2/5
f 124/1/5 62/1/5 123/1/5
f 125/2/5 120/2/5 119/2/5
f 125/2/5 119/2/5 51/2/5
f 126/2/5 120/2/5 125/2/5
f 127/1/5 122/1/5 121/1/5
f 127/2/5 120/2/5 126/2/5
f 127/1/5 123/1/5 122/1/5
f 127/1/5 121/1/5 120/1/5
f 128/2/5 124/2/5 123/2/5
f 128/1/5 123/1/5 127/1/5
f 129/2/5 56/2/5 124/2/5
f 129/2/5 124/2/5 128/2/5
f 130/2/5 56/2/5 129/2/5
f 131/2/5 127/2/5 126/2/5
f 131/2/5 129/2/5 128/2/5
f 131/2/5 128/2/5 127/2/5
f 132/2/5 129/2/5 131/2/5
f 133/2/6 134/2/6 136/2/6
f 136/2/6 134/2/6 137/2/6
f 137/2/6 134/2/6 138/2/6
f 138/2/6 134/2/6 139/2/6
f 135/2/6 136/2/6 141/2/6
f 136/2/6 137/2/6 141/2/6
f 137/1/6 138/1/6 142/1/6
f 141/2/6 137/2/6 142/2/6
f 139/2/6 140/2/6 143/2/6
f 142/1/6 138/1/6 143/1/6
f 138/2/6 139/2/6 143/2/6
f 143/2/6 140/2/6 144/2/6
f 141/1/6 142/1/6 145/1/6
f 142/1/6 143/1/6 145/1/6
f 143/1/6 144/1/6 145/1/6
f 145/1/6 144/1/6 146/1/6
f 146/1/6 144/1/6 147/1/6
f 147/1/6 144/1/6 148/1/6
f 145/3/6 146/3/6 149/3/6
f 146/1/6 147/1/6 150/1/6
f 149/3/6 146/3/6 150/3/6
f 147/3/6 148/3/6 151/3/6
f 150/1/6 147/1/6 151/1/6
f 148/1/6 144/1/6 152/1/6
f 151/3/6 148/3/6 152/3/6
f 145/3/6 149/3/6 153/3/6
f 149/1/6 150/1/6 153/1/6
f 150/3/6 151/3/6 154/3/6
f 153/1/6 150/1/6 154/1/6
f 141/1/6 145/1/6 155/1/6
f 145/3/6 153/3/6 155/3/6
f 153/3/6 154/3/6 155/3/6
f 154/3/6 151/3/6 156/3/6
f 155/3/6 154/3/6 156/3/6
f 151/1/6 152/1/6 156/1/6
f 141/1/6 155/1/6 157/1/6
f 155/1/6 156/1/6 157/1/6
f 157/1/6 156/1/6 158/1/6
f 141/1/6 157/1/6 159/1/6
f 157/3/6 158/3/6 160/3/6
f 159/1/6 157/1/6 160/1/6
f 158/1/6 156/1/6 161/1/6
f 160/3/6 158/3/6 161/3/6
f 161/1/6 156/1/6 162/1/6
f 141/1/6 159/1/6 163/1/6
f 159/3/6 160/3/6 164/3/6
f 163/1/6 159/1/6 164/1/6
f 160/3/6 161/3/6 164/3/6
f 161/3/6 162/3/6 164/3/6
f 162/1/6 156/1/6 165/1/6
f 164/3/6 162/3/6 165/3/6
f 165/1/6 156/1/6 166/1/6
f 141/1/6 163/1/6 167/1/6
f 163/3/6 164/3/6 168/3/6
f 167/1/6 163/1/6 168/1/6
f 164/3/6 165/3/6 168/3/6
f 165/3/6 166/3/6 168/3/6
f 166/1/6 156/1/6 169/1/6
f 168/3/6 166/3/6 169/3/6
f 169/1/6 156/1/6 170/1/6
f 141/1/6 167/1/6 171/1/6
f 167/3/6 168/3/6 172/3/6
f 171/1/6 167/1/6 172/1/6
f 168/3/6 169/3/6 172/3/6
f 169/3/6 170/3/6 172/3/6
f 170/1/6 156/1/6 173/1/6
f 172/3/6 170/3/6 173/3/6
f 173/1/6 156/1/6 174/1/6
f 141/1/6 171/1/6 175/1/6
f 171/3/6 172/3/6 176/3/6
f 175/1/6 171/1/6 176/1/6
f 172/3/6 173/3/6 176/3/6
f 173/3/6 174/3/6 176/3/6
f 174/1/6 156/1/6 177/1/6
f 176/3/6 174/3/6 177/3/6
f 177/1/6 156/1/6 178/1/6
f 175/3/6 176/3/6 179/3/6
f 141/1/6 175/1/6 179/1/6
f 177/3/6 178/3/6 179/3/6
f 176/3/6 177/3/6 179/3/6
f 179/3/6 178/3/6 180/3/6
f 180/3/6 178/3/6 181/3/6
f 178/1/6 156/1/6 182/1/6
f 181/3/6 178/3/6 182/3/6
f 180/3/6 181/3/6 183/3/6
f 179/1/6 180/1/6 183/1/6
f 183/3/6 181/3/6 184/3/6
f 184/3/6 181/3/6 185/3/6
f 181/1/6 182/1/6 186/1/6
f 185/3/6 181/3/6 186/3/6
f 184/3/6 185/3/6 187/3/6
f 183/1/6 184/1/6 187/1/6
f 187/3/6 185/3/6 188/3/6
f 188/3/6 185/3/6 189/3/6
f 185/1/6 186/1/6 190/1/6
f 189/3/6 185/3/6 190/3/6
f 188/3/6 189/3/6 191/3/6
f 187/1/6 188/1/6 191/1/6
f 191/3/6 189/3/6 192/3/6
f 192/3/6 189/3/6 193/3/6
f 189/1/6 190/1/6 194/1/6
f 193/3/6 189/3/6 194/3/6
f 192/3/6 193/3/6 195/3/6
f 191/1/6 192/1/6 195/1/6
f 195/3/6 193/3/6 196/3/6
f 196/3/6 193/3/6 197/3/6
f 193/1/6 194/1/6 198/1/6
f 197/3/6 193/3/6 198/3/6
f 196/3/6 197/3/6 199/3/6
f 195/1/6 196/1/6 199/1/6
f 197/1/6 198/1/6 200/1/6
f 199/3/6 197/3/6 200/3/6
f 141/1/6 179/1/6 201/1/6
f 179/1/6 183/1/6 201/1/6
f 199/1/6 200/1/6 201/1/6
f 195/1/6 199/1/6 201/1/6
f 191/1/6 195/1/6 201/1/6
f 183/1/6 187/1/6 201/1/6
f 187/1/6 191/1/6 201/1/6
f 201/1/6 200/1/6 202/1/6
f 202/1/6 200/1/6 203/1/6
f 203/1/6 200/1/6 204/1/6
f 201/3/6 202/3/6 205/3/6
f 202/1/6 203/1/6 206/1/6
f 205/3/6 202/3/6 206/3/6
f 203/3/6 204/3/6 207/3/6
f 206/1/6 203/1/6 207/1/6
f 204/1/6 200/1/6 208/1/6
f 207/3/6 204/3/6 208/3/6
f 201/3/6 205/3/6 209/3/6
f 205/1/6 206/1/6 209/1/6
f 206/3/6 207/3/6 210/3/6
f 209/1/6 206/1/6 210/1/6
f 141/1/6 201/1/6 211/1/6
f 201/3/6 209/3/6 211/3/6
f 209/3/6 210/3/6 211/3/6
f 210/3/6 207/3/6 212/3/6
f 211/3/6 210/3/6 212/3/6
f 207/1/6 208/1/6 212/1/6
f 135/2/6 141/2/6 213/2/6
f 141/1/6 211/1/6 213/1/6
f 211/1/6 212/1/6 213/1/6
f 213/1/6 212/1/6 214/1/6
f 212/1/6 208/1/6 215/1/6
f 214/1/6 212/1/6 215/1/6
f 156/1/6 152/1/6 215/1/6
f 152/1/6 144/1/6 215/1/6
f 208/1/6 200/1/6 215/1/6
f 194/1/6 190/1/6 215/1/6
f 190/1/6 186/1/6 215/1/6
f 198/1/6 194/1/6 215/1/6
f 186/1/6 182/1/6 215/1/6
f 200/1/6 198/1/6 215/1/6
f 182/1/6 156/1/6 215/1/6
f 144/2/6 140/2/6 216/2/6
f 215/1/6 144/1/6 216/1/6
f 213/2/6 214/2/6 217/2/6
f 135/2/6 213/2/6 217/2/6
f 217/2/6 214/2/6 218/2/6
f 214/1/6 215/1/6 219/1/6
f 218/2/6 214/2/6 219/2/6
f 215/2/6 216/2/6 220/2/6
f 219/1/6 215/1/6 220/1/6
f 216/2/6 140/2/6 221/2/6
f 220/2/6 216/2/6 221/2/6
f 221/2/6 140/2/6 222/2/6
f 219/2/6 220/2/6 223/2/6
f 220/2/6 221/2/6 223/2/6
f 218/2/6 219/2/6 223/2/6
f 223/2/6 221/2/6 224/2/6
